<?xml version="1.0" standalone="no"?>
<!DOCTYPE svg PUBLIC "-//W3C//DTD SVG 20010904//EN"
 "http://www.w3.org/TR/2001/REC-SVG-20010904/DTD/svg10.dtd">
<svg version="1.0" xmlns="http://www.w3.org/2000/svg"
 width="260.000000pt" height="260.000000pt" viewBox="0 0 260.000000 260.000000"
 preserveAspectRatio="xMidYMid meet">
<metadata>
Created by potrace 1.11, written by Peter Selinger 2001-2013
</metadata>
<g transform="translate(0.000000,260.000000) scale(0.100000,-0.100000)"
fill="#000000" stroke="none">
<path d="M2058 2175 c-1 -1 -23 -5 -48 -8 -165 -20 -503 -114 -680 -189 -311
-131 -495 -289 -516 -442 -15 -104 22 -162 131 -211 80 -37 147 -51 330 -70
40 -4 95 -11 170 -21 22 -2 58 -7 80 -10 106 -14 188 -46 203 -79 35 -76 -180
-287 -414 -407 -120 -61 -292 -125 -410 -153 -11 -2 -37 -9 -59 -14 -122 -29
-370 -37 -455 -15 -136 35 -169 125 -78 216 65 65 272 153 408 174 62 9 71 14
68 37 -3 20 -8 22 -79 21 -175 -3 -437 -137 -506 -261 -17 -31 -21 -52 -19
-106 2 -57 6 -72 32 -104 32 -41 117 -88 180 -100 52 -10 302 -10 386 0 246
30 534 143 725 286 276 205 361 389 248 536 -39 52 -156 95 -298 110 -32 4
-66 8 -75 10 -10 2 -45 6 -77 10 -33 4 -67 9 -76 10 -21 4 -118 17 -149 20
-46 4 -138 38 -166 60 -60 48 -27 127 89 208 258 182 886 388 1166 383 97 -2
153 -19 164 -48 8 -24 -13 -72 -45 -105 -30 -31 -169 -133 -182 -133 -3 0 -27
-13 -53 -28 -92 -54 -224 -95 -237 -74 -9 15 33 48 149 117 81 48 104 66 91
71 -59 23 -279 -112 -312 -191 -7 -17 -11 -40 -9 -51 2 -10 4 -23 4 -27 1 -4
18 -15 38 -23 72 -31 188 -2 311 78 37 23 69 45 72 48 3 3 28 23 55 44 172
137 241 270 183 356 -39 58 -85 74 -220 76 -64 1 -118 1 -120 -1z"/>
</g>
</svg>
